# xmcd
#
# Track frame offsets:
#	150
#	17437
#	37873
#	55200
#	71792
#	87326
#	106192
#	126810
#
# Disc length: 1918 seconds
#
# Revision: 1
# Processed by: cddbd v1.5.1PL0 Copyright (c) Steve Scherf et al.
# Submitted via: CDex 1.50Beta5
#
DISCID=5e077c08
DTITLE=大江戸宅急便 - えるもあ
DYEAR=1900
DGENRE=Anime
TTITLE0=想い
TTITLE1=双星
TTITLE2=空のてっぺん
TTITLE3=疾走
TTITLE4=軌跡
TTITLE5=四葉
TTITLE6=双星 [ いんすと ]
TTITLE7=空のてっぺん [ いんすと ]
EXTD=
EXTT0=
EXTT1=
EXTT2=
EXTT3=
EXTT4=
EXTT5=
EXTT6=
EXTT7=
PLAYORDER=
